<?xml version="1.0" standalone="no"?><!DOCTYPE svg PUBLIC "-//W3C//DTD SVG 1.1//EN" "http://www.w3.org/Graphics/SVG/1.1/DTD/svg11.dtd"><svg xmlns="http://www.w3.org/2000/svg" version="1.1" width="1050" height="1154.333" xmlns:xlink="http://www.w3.org/1999/xlink" xlink="http://www.w3.org/1999/xlink" style="position:relative;overflow:hidden;" viewBox="4.167 50 1050 1154.333"><defs/><g><g width="150" height="75" transform="scale(1,1) translate(16.667,62.5)"><g stroke="#7F7F7F" stroke-opacity="1" stroke-width="1" stroke-dasharray="none" width="150" height="75" transform="scale(1,1) translate(0,0)" fill="#FFFFFF" fill-opacity="1"><rect width="150" height="75"/></g><g width="145" height="70" transform="scale(1,1) translate(2.5,2.5)"><text width="145" height="16.66666603088379" transform="scale(1,1) translate(0,26.666666984558105)" xml:space="preserve"><tspan xml:space="preserve" text-rendering="optimizeSpeed" font-size="13.88888888888889" font-weight="normal" font-style="normal" text-decoration="none" fill="#000000" opacity="1" x="52.18" text-anchor="start" y="13.542" textLength="40.639225006103516" style="font-family: Verdana, Geneva, sans-serif;">Home</tspan></text></g></g><g width="150" height="75" transform="scale(1,1) translate(191.667,62.5)"><g stroke="#7F7F7F" stroke-opacity="1" stroke-width="1" stroke-dasharray="none" width="150" height="75" transform="scale(1,1) translate(0,0)" fill="#FFFFFF" fill-opacity="1"><rect width="150" height="75"/></g><g width="145" height="70" transform="scale(1,1) translate(2.5,2.5)"><text width="145" height="16.66666603088379" transform="scale(1,1) translate(0,26.666666984558105)" xml:space="preserve"><tspan xml:space="preserve" text-rendering="optimizeSpeed" font-size="13.88888888888889" font-weight="normal" font-style="normal" text-decoration="none" fill="#000000" opacity="1" x="52.085" text-anchor="start" y="13.542" textLength="40.82905197143555" style="font-family: Verdana, Geneva, sans-serif;">About</tspan></text></g></g><g width="150" height="75" transform="scale(1,1) translate(366.667,62.5)"><g stroke="#7F7F7F" stroke-opacity="1" stroke-width="1" stroke-dasharray="none" width="150" height="75" transform="scale(1,1) translate(0,0)" fill="#FFFFFF" fill-opacity="1"><rect width="150" height="75"/></g><g width="145" height="70" transform="scale(1,1) translate(2.5,2.5)"><text width="145" height="16.66666603088379" transform="scale(1,1) translate(0,26.666666984558105)" xml:space="preserve"><tspan xml:space="preserve" text-rendering="optimizeSpeed" font-size="13.88888888888889" font-weight="normal" font-style="normal" text-decoration="none" fill="#000000" opacity="1" x="33.441" text-anchor="start" y="13.542" textLength="78.11890411376953" style="font-family: Verdana, Geneva, sans-serif;">Activiteiten</tspan></text></g></g><g width="150" height="75" transform="scale(1,1) translate(541.667,62.5)"><g stroke="#7F7F7F" stroke-opacity="1" stroke-width="1" stroke-dasharray="none" width="150" height="75" transform="scale(1,1) translate(0,0)" fill="#FFFFFF" fill-opacity="1"><rect width="150" height="75"/></g><g width="145" height="70" transform="scale(1,1) translate(2.5,2.5)"><text width="145" height="16.66666603088379" transform="scale(1,1) translate(0,26.666666984558105)" xml:space="preserve"><tspan xml:space="preserve" text-rendering="optimizeSpeed" font-size="13.88888888888889" font-weight="normal" font-style="normal" text-decoration="none" fill="#000000" opacity="1" x="34.268" text-anchor="start" y="13.542" textLength="76.46461486816406" style="font-family: Verdana, Geneva, sans-serif;">Praesidium</tspan></text></g></g><g width="150" height="75" transform="scale(1,1) translate(716.667,62.5)"><g stroke="#7F7F7F" stroke-opacity="1" stroke-width="1" stroke-dasharray="none" width="150" height="75" transform="scale(1,1) translate(0,0)" fill="#FFFFFF" fill-opacity="1"><rect width="150" height="75"/></g><g width="145" height="70" transform="scale(1,1) translate(2.5,2.5)"><text width="145" height="16.66666603088379" transform="scale(1,1) translate(0,26.666666984558105)" xml:space="preserve"><tspan xml:space="preserve" text-rendering="optimizeSpeed" font-size="13.88888888888889" font-weight="normal" font-style="normal" text-decoration="none" fill="#000000" opacity="1" x="42.665" text-anchor="start" y="13.542" textLength="59.67060470581055" style="font-family: Verdana, Geneva, sans-serif;">Clubcafé</tspan></text></g></g><g width="150" height="75" transform="scale(1,1) translate(891.667,62.5)"><g stroke="#7F7F7F" stroke-opacity="1" stroke-width="1" stroke-dasharray="none" width="150" height="75" transform="scale(1,1) translate(0,0)" fill="#FFFFFF" fill-opacity="1"><rect width="150" height="75"/></g><g width="145" height="70" transform="scale(1,1) translate(2.5,2.5)"><text width="145" height="16.66666603088379" transform="scale(1,1) translate(0,26.666666984558105)" xml:space="preserve"><tspan xml:space="preserve" text-rendering="optimizeSpeed" font-size="13.88888888888889" font-weight="normal" font-style="normal" text-decoration="none" fill="#000000" opacity="1" x="45.787" text-anchor="start" y="13.542" textLength="53.426231384277344" style="font-family: Verdana, Geneva, sans-serif;">Contact</tspan></text></g></g><g width="100" height="150.5" transform="scale(1,1) translate(216.667,141.417)"><g transform="scale(1,1) translate(0,0)" stroke="#7F7F7F" fill="#FFFFFF" fill-opacity="1" stroke-opacity="1"><path d="M0,27 L50,0 L100,27.5 L100,150.5 L0,150.5 L0,27 z" stroke-width="1" stroke-dasharray="none"/></g><g width="99" height="122.11411411411412" transform="scale(1,1) translate(0.5,27.886)"><text width="99" height="16.66666603088379" transform="scale(1,1) translate(0,52.723724041615164)" xml:space="preserve"><tspan xml:space="preserve" text-rendering="optimizeSpeed" font-size="13.88888888888889" font-weight="normal" font-style="normal" text-decoration="none" fill="#000000" opacity="1" x="17.821" text-anchor="start" y="13.542" textLength="63.358890533447266" style="font-family: Verdana, Geneva, sans-serif;">Ontstaan</tspan></text></g></g><g width="100" height="150.5" transform="scale(1,1) translate(216.667,291.417)"><g transform="scale(1,1) translate(0,0)" stroke="#7F7F7F" fill="#FFFFFF" fill-opacity="1" stroke-opacity="1"><path d="M0,27 L50,0 L100,27.5 L100,150.5 L0,150.5 L0,27 z" stroke-width="1" stroke-dasharray="none"/></g><g width="99" height="122.11411411411412" transform="scale(1,1) translate(0.5,27.886)"><text width="99" height="16.66666603088379" transform="scale(1,1) translate(0,52.723724041615164)" xml:space="preserve"><tspan xml:space="preserve" text-rendering="optimizeSpeed" font-size="13.88888888888889" font-weight="normal" font-style="normal" text-decoration="none" fill="#000000" opacity="1" x="39.944" text-anchor="start" y="13.542" textLength="19.112777709960938" style="font-family: Verdana, Geneva, sans-serif;">SK</tspan></text></g></g><g width="100" height="150.5" transform="scale(1,1) translate(216.667,441.417)"><g transform="scale(1,1) translate(0,0)" stroke="#7F7F7F" fill="#FFFFFF" fill-opacity="1" stroke-opacity="1"><path d="M0,27.013 L0,27.013 L50,0 L50,0 L50,0 L100,27.516 L100,27.516 L100,27.516 L100,150.5 L100,150.5 L100,150.5 L0,150.5 L0,150.5 L0,150.5 L0,27.013 L0,27.013 z" stroke-width="1" stroke-dasharray="none"/></g><g width="99" height="122.11411411411412" transform="scale(1,1) translate(0.5,27.886)"><text width="99" height="16.66666603088379" transform="scale(1,1) translate(0,52.723724041615164)" xml:space="preserve"><tspan xml:space="preserve" text-rendering="optimizeSpeed" font-size="13.88888888888889" font-weight="normal" font-style="normal" text-decoration="none" fill="#000000" opacity="1" x="29.085" text-anchor="start" y="13.542" textLength="40.82905197143555" style="font-family: Verdana, Geneva, sans-serif;">About</tspan></text></g></g><g width="100" height="150.333" transform="scale(1,1) translate(391.667,141.5)"><g transform="scale(1,1) translate(0,0)" stroke="#7F7F7F" fill="#FFFFFF" fill-opacity="1" stroke-opacity="1"><path d="M0,26.983 L0,26.983 L50,0 L50,0 L50,0 L100,27.486 L100,27.486 L100,27.486 L100,150.333 L100,150.333 L100,150.333 L0,150.333 L0,150.333 L0,150.333 L0,26.983 L0,26.983 z" stroke-width="1" stroke-dasharray="none"/></g><g width="99" height="121.97797797797796" transform="scale(1,1) translate(0.5,27.855)"><text width="99" height="16.66666603088379" transform="scale(1,1) translate(0,52.655655973547084)" xml:space="preserve"><tspan xml:space="preserve" text-rendering="optimizeSpeed" font-size="13.88888888888889" font-weight="normal" font-style="normal" text-decoration="none" fill="#000000" opacity="1" x="26.119" text-anchor="start" y="13.542" textLength="46.76152420043945" style="font-family: Verdana, Geneva, sans-serif;">Skireis</tspan></text></g></g><g width="100" height="150.333" transform="scale(1,1) translate(391.667,291.5)"><g transform="scale(1,1) translate(0,0)" stroke="#7F7F7F" fill="#FFFFFF" fill-opacity="1" stroke-opacity="1"><path d="M0,26.983 L0,26.983 L50,0 L50,0 L50,0 L100,27.486 L100,27.486 L100,27.486 L100,150.333 L100,150.333 L100,150.333 L0,150.333 L0,150.333 L0,150.333 L0,26.983 L0,26.983 z" stroke-width="1" stroke-dasharray="none"/></g><g width="99" height="121.97797797797796" transform="scale(1,1) translate(0.5,27.855)"><text width="99" height="16.66666603088379" transform="scale(1,1) translate(0,52.655655973547084)" xml:space="preserve"><tspan xml:space="preserve" text-rendering="optimizeSpeed" font-size="13.88888888888889" font-weight="normal" font-style="normal" text-decoration="none" fill="#000000" opacity="1" x="15.305" text-anchor="start" y="13.542" textLength="68.3896713256836" style="font-family: Verdana, Geneva, sans-serif;">Kiekenfuif</tspan></text></g></g><g width="100" height="150.333" transform="scale(1,1) translate(391.667,441.5)"><g transform="scale(1,1) translate(0,0)" stroke="#7F7F7F" fill="#FFFFFF" fill-opacity="1" stroke-opacity="1"><path d="M0,26.983 L0,26.983 L50,0 L50,0 L50,0 L100,27.486 L100,27.486 L100,27.486 L100,150.333 L100,150.333 L100,150.333 L0,150.333 L0,150.333 L0,150.333 L0,26.983 L0,26.983 z" stroke-width="1" stroke-dasharray="none"/></g><g width="99" height="121.97797797797796" transform="scale(1,1) translate(0.5,27.855)"><text width="99" height="16.66666603088379" transform="scale(1,1) translate(0,52.655655973547084)" xml:space="preserve"><tspan xml:space="preserve" text-rendering="optimizeSpeed" font-size="13.88888888888889" font-weight="normal" font-style="normal" text-decoration="none" fill="#000000" opacity="1" x="23.472" text-anchor="start" y="13.542" textLength="52.056671142578125" style="font-family: Verdana, Geneva, sans-serif;">Galabal</tspan></text></g></g><g width="100" height="150.333" transform="scale(1,1) translate(391.667,591.5)"><g transform="scale(1,1) translate(0,0)" stroke="#7F7F7F" fill="#FFFFFF" fill-opacity="1" stroke-opacity="1"><path d="M0,26.983 L0,26.983 L50,0 L50,0 L50,0 L100,27.486 L100,27.486 L100,27.486 L100,150.333 L100,150.333 L100,150.333 L0,150.333 L0,150.333 L0,150.333 L0,26.983 L0,26.983 z" stroke-width="1" stroke-dasharray="none"/></g><g width="99" height="121.97797797797796" transform="scale(1,1) translate(0.5,27.855)"><text width="99" height="33.33333206176758" transform="scale(1,1) translate(0,44.32232295810519)" xml:space="preserve"><tspan xml:space="preserve" text-rendering="optimizeSpeed" font-size="13.88888888888889" font-weight="normal" font-style="normal" text-decoration="none" fill="#000000" opacity="1" x="20.59" text-anchor="start" y="13.542" textLength="52.9381103515625" style="font-family: Verdana, Geneva, sans-serif;">Sport &amp;</tspan><tspan xml:space="preserve" text-rendering="optimizeSpeed" font-size="13.88888888888889" font-weight="normal" font-style="normal" text-decoration="none" fill="#000000" opacity="1" x="24.851" text-anchor="start" y="30.208" textLength="49.29720687866211" style="font-family: Verdana, Geneva, sans-serif;">Cultuur</tspan></text></g></g><g width="100" height="150.333" transform="scale(1,1) translate(391.667,741.5)"><g transform="scale(1,1) translate(0,0)" stroke="#7F7F7F" fill="#FFFFFF" fill-opacity="1" stroke-opacity="1"><path d="M0,26.983 L0,26.983 L50,0 L50,0 L50,0 L100,27.486 L100,27.486 L100,27.486 L100,150.333 L100,150.333 L100,150.333 L0,150.333 L0,150.333 L0,150.333 L0,26.983 L0,26.983 z" stroke-width="1" stroke-dasharray="none"/></g><g width="99" height="121.97797797797796" transform="scale(1,1) translate(0.5,27.855)"><text width="99" height="16.66666603088379" transform="scale(1,1) translate(0,52.655655973547084)" xml:space="preserve"><tspan xml:space="preserve" text-rendering="optimizeSpeed" font-size="13.88888888888889" font-weight="normal" font-style="normal" text-decoration="none" fill="#000000" opacity="1" x="20.912" text-anchor="start" y="13.542" textLength="57.17559051513672" style="font-family: Verdana, Geneva, sans-serif;">Feestjes</tspan></text></g></g><g width="100" height="150.333" transform="scale(1,1) translate(391.667,891.5)"><g transform="scale(1,1) translate(0,0)" stroke="#7F7F7F" fill="#FFFFFF" fill-opacity="1" stroke-opacity="1"><path d="M0,26.983 L0,26.983 L50,0 L50,0 L50,0 L100,27.486 L100,27.486 L100,27.486 L100,150.333 L100,150.333 L100,150.333 L0,150.333 L0,150.333 L0,150.333 L0,26.983 L0,26.983 z" stroke-width="1" stroke-dasharray="none"/></g><g width="99" height="121.97797797797796" transform="scale(1,1) translate(0.5,27.855)"><text width="99" height="16.66666603088379" transform="scale(1,1) translate(0,52.655655973547084)" xml:space="preserve"><tspan xml:space="preserve" text-rendering="optimizeSpeed" font-size="13.88888888888889" font-weight="normal" font-style="normal" text-decoration="none" fill="#000000" opacity="1" x="25.343" text-anchor="start" y="13.542" textLength="48.314125061035156" style="font-family: Verdana, Geneva, sans-serif;">Cantus</tspan></text></g></g><g width="100" height="150.5" transform="scale(1,1) translate(216.667,591.417)"><g transform="scale(1,1) translate(0,0)" stroke="#7F7F7F" fill="#FFFFFF" fill-opacity="1" stroke-opacity="1"><path d="M0,27.013 L0,27.013 L50,0 L50,0 L50,0 L100,27.516 L100,27.516 L100,27.516 L100,150.5 L100,150.5 L100,150.5 L0,150.5 L0,150.5 L0,150.5 L0,27.013 L0,27.013 z" stroke-width="1" stroke-dasharray="none"/></g><g width="99" height="122.11411411411412" transform="scale(1,1) translate(0.5,27.886)"><text width="99" height="16.66666603088379" transform="scale(1,1) translate(0,52.723724041615164)" xml:space="preserve"><tspan xml:space="preserve" text-rendering="optimizeSpeed" font-size="13.88888888888889" font-weight="normal" font-style="normal" text-decoration="none" fill="#000000" opacity="1" x="19.641" text-anchor="start" y="13.542" textLength="59.718082427978516" style="font-family: Verdana, Geneva, sans-serif;">Liederen</tspan></text></g></g><g width="100" height="150.333" transform="scale(1,1) translate(566.667,141.5)"><g transform="scale(1,1) translate(0,0)" stroke="#7F7F7F" fill="#FFFFFF" fill-opacity="1" stroke-opacity="1"><path d="M0,26.983 L0,26.983 L50,0 L50,0 L50,0 L100,27.486 L100,27.486 L100,27.486 L100,150.333 L100,150.333 L100,150.333 L0,150.333 L0,150.333 L0,150.333 L0,26.983 L0,26.983 z" stroke-width="1" stroke-dasharray="none"/></g><g width="99" height="121.97797797797796" transform="scale(1,1) translate(0.5,27.855)"><text width="99" height="16.66666603088379" transform="scale(1,1) translate(0,52.655655973547084)" xml:space="preserve"><tspan xml:space="preserve" text-rendering="optimizeSpeed" font-size="13.88888888888889" font-weight="normal" font-style="normal" text-decoration="none" fill="#000000" opacity="1" x="11.268" text-anchor="start" y="13.542" textLength="76.46461486816406" style="font-family: Verdana, Geneva, sans-serif;">Praesidium</tspan></text></g></g><g width="100" height="150.333" transform="scale(1,1) translate(566.667,291.5)"><g transform="scale(1,1) translate(0,0)" stroke="#7F7F7F" fill="#FFFFFF" fill-opacity="1" stroke-opacity="1"><path d="M0,26.983 L0,26.983 L50,0 L50,0 L50,0 L100,27.486 L100,27.486 L100,27.486 L100,150.333 L100,150.333 L100,150.333 L0,150.333 L0,150.333 L0,150.333 L0,26.983 L0,26.983 z" stroke-width="1" stroke-dasharray="none"/></g><g width="99" height="121.97797797797796" transform="scale(1,1) translate(0.5,27.855)"><text width="99" height="16.66666603088379" transform="scale(1,1) translate(0,52.655655973547084)" xml:space="preserve"><tspan xml:space="preserve" text-rendering="optimizeSpeed" font-size="13.88888888888889" font-weight="normal" font-style="normal" text-decoration="none" fill="#000000" opacity="1" x="3.589" text-anchor="start" y="13.542" textLength="91.8212661743164" style="font-family: Verdana, Geneva, sans-serif;">Pro-praesidia</tspan></text></g></g><g width="100" height="150.333" transform="scale(1,1) translate(391.667,1041.5)"><g transform="scale(1,1) translate(0,0)" stroke="#7F7F7F" fill="#FFFFFF" fill-opacity="1" stroke-opacity="1"><path d="M0,26.983 L0,26.983 L50,0 L50,0 L50,0 L100,27.486 L100,27.486 L100,27.486 L100,150.333 L100,150.333 L100,150.333 L0,150.333 L0,150.333 L0,150.333 L0,26.983 L0,26.983 z" stroke-width="1" stroke-dasharray="none"/></g><g width="99" height="121.97797797797796" transform="scale(1,1) translate(0.5,27.855)"><text width="99" height="16.66666603088379" transform="scale(1,1) translate(0,52.655655973547084)" xml:space="preserve"><tspan xml:space="preserve" text-rendering="optimizeSpeed" font-size="13.88888888888889" font-weight="normal" font-style="normal" text-decoration="none" fill="#000000" opacity="1" x="35.506" text-anchor="start" y="13.542" textLength="27.98776626586914" style="font-family: Verdana, Geneva, sans-serif;">TML</tspan></text></g></g><g width="100" height="150.5" transform="scale(1,1) translate(741.667,141.417)"><g transform="scale(1,1) translate(0,0)" stroke="#7F7F7F" fill="#FFFFFF" fill-opacity="1" stroke-opacity="1"><path d="M0,27 L50,0 L100,27.5 L100,150.5 L0,150.5 L0,27 z" stroke-width="1" stroke-dasharray="none"/></g><g width="99" height="122.11411411411412" transform="scale(1,1) translate(0.5,27.886)"><text width="99" height="16.66666603088379" transform="scale(1,1) translate(0,52.723724041615164)" xml:space="preserve"><tspan xml:space="preserve" text-rendering="optimizeSpeed" font-size="13.88888888888889" font-weight="normal" font-style="normal" text-decoration="none" fill="#000000" opacity="1" x="15.553" text-anchor="start" y="13.542" textLength="67.89472961425781" style="font-family: Verdana, Geneva, sans-serif;">Bunkertje</tspan></text></g></g><g width="100" height="150.333" transform="scale(1,1) translate(741.667,291.5)"><g transform="scale(1,1) translate(0,0)" stroke="#7F7F7F" fill="#FFFFFF" fill-opacity="1" stroke-opacity="1"><path d="M0,26.983 L0,26.983 L50,0 L50,0 L50,0 L100,27.486 L100,27.486 L100,27.486 L100,150.333 L100,150.333 L100,150.333 L0,150.333 L0,150.333 L0,150.333 L0,26.983 L0,26.983 z" stroke-width="1" stroke-dasharray="none"/></g><g width="99" height="121.97797797797796" transform="scale(1,1) translate(0.5,27.855)"><text width="99" height="16.66666603088379" transform="scale(1,1) translate(0,52.655655973547084)" xml:space="preserve"><tspan xml:space="preserve" text-rendering="optimizeSpeed" font-size="13.88888888888889" font-weight="normal" font-style="normal" text-decoration="none" fill="#000000" opacity="1" x="27.723" text-anchor="start" y="13.542" textLength="43.55459213256836" style="font-family: Verdana, Geneva, sans-serif;">Kanon</tspan></text></g></g></g></svg>