<?xml version="1.0" standalone="no"?>
<!DOCTYPE svg PUBLIC "-//W3C//DTD SVG 20010904//EN"
 "http://www.w3.org/TR/2001/REC-SVG-20010904/DTD/svg10.dtd">
<svg version="1.0" xmlns="http://www.w3.org/2000/svg"
 width="1120.000000pt" height="1120.000000pt" viewBox="0 0 1120.000000 1120.000000"
 preserveAspectRatio="xMidYMid meet">
<metadata>
Created by potrace 1.11, written by Peter Selinger 2001-2013
</metadata>
<g transform="translate(0.000000,1120.000000) scale(0.100000,-0.100000)"
fill="#000000" stroke="none">
<path d="M1463 7513 c2 -2029 6 -3701 10 -3718 3 -16 9 -59 12 -95 9 -92 11
-109 19 -160 4 -25 9 -61 11 -80 8 -61 16 -112 36 -215 28 -142 29 -146 40
-190 6 -22 12 -49 13 -60 4 -23 23 -97 37 -140 5 -16 23 -77 40 -135 50 -168
134 -396 196 -530 62 -132 183 -371 194 -380 3 -3 14 -20 24 -39 9 -19 21 -39
26 -45 5 -6 42 -60 81 -120 97 -145 146 -210 243 -325 107 -126 357 -372 428
-420 12 -8 24 -17 27 -21 3 -3 25 -21 50 -40 25 -19 47 -37 50 -41 10 -12 281
-188 310 -201 16 -7 30 -16 30 -20 0 -5 6 -8 14 -8 7 0 19 -7 26 -15 7 -9 15
-13 18 -10 3 3 10 1 17 -5 27 -23 263 -135 277 -132 5 1 8 -2 8 -8 0 -5 7 -10
15 -10 9 0 32 -9 53 -19 20 -10 39 -19 42 -19 3 0 16 -5 30 -10 102 -38 170
-61 170 -56 0 4 6 2 13 -3 10 -9 105 -44 132 -49 6 -1 37 -9 70 -18 33 -10 67
-19 75 -21 8 -2 15 -4 15 -5 0 -1 9 -3 20 -4 11 -2 52 -11 90 -20 39 -10 81
-19 95 -21 14 -2 50 -9 80 -15 49 -10 76 -15 145 -25 11 -2 20 -4 20 -5 0 0
23 -3 50 -6 47 -4 90 -11 90 -14 0 0 27 -3 60 -5 33 -3 78 -7 100 -10 164 -20
795 -28 1000 -12 186 14 220 17 255 23 19 3 55 8 80 10 106 11 176 22 250 39
14 3 39 7 55 9 17 2 37 7 45 10 8 3 31 7 51 10 19 3 62 13 95 21 32 9 68 18
79 20 11 1 20 3 20 4 0 2 8 4 18 6 10 2 51 13 90 25 40 12 80 24 90 25 9 2 22
7 27 10 5 3 18 8 27 10 52 11 292 106 415 164 48 23 90 40 92 39 2 -2 12 4 22
14 11 9 35 23 54 32 63 29 293 166 310 186 3 3 23 17 46 31 43 28 227 173 283
224 67 59 227 221 281 284 30 35 60 69 65 75 30 32 154 195 165 216 7 14 16
27 20 30 10 8 120 178 127 197 4 10 10 20 14 23 6 4 162 298 165 310 0 3 11
28 23 55 25 56 44 97 46 105 1 3 9 23 19 45 10 22 24 60 33 85 8 25 20 56 26
70 5 14 11 30 13 35 1 6 11 35 21 65 27 74 63 195 69 227 3 14 9 34 15 44 5
10 8 22 7 26 -1 4 4 28 11 53 7 25 15 54 17 65 4 23 12 59 20 95 17 73 32 153
39 200 10 66 14 85 15 85 2 0 2 4 15 100 10 82 13 111 20 175 3 30 8 73 12 95
3 22 8 1722 10 3778 l3 3737 -4140 0 -4140 0 3 -3687z"/>
</g>
</svg>
