<svg xmlns="http://www.w3.org/2000/svg" xmlns:xlink="http://www.w3.org/1999/xlink" width="1920mm" height="880mm" viewBox="0 0 5442.5197 2494.4882"><defs><style>.a{fill:none;}.b{clip-path:url(#a);}.c{fill:#f4837d;}</style><clipPath id="a"><rect class="a" x="0.0001" width="2039.4174" height="2328.2988" transform="translate(2039.4175 2328.2988) rotate(-180)"/></clipPath></defs><title>Artboard 1</title><g class="b"><path class="c" d="M1933.2541,540.7162a283.1789,283.1789,0,0,1-9.0284,108.0157L1654.523,1601.6046a283.4646,283.4646,0,0,1-203.2316,197.6084L491.228,2042.08a283.4646,283.4646,0,0,1-272.75-77.2l-690.3606-710.0057a283.1808,283.1808,0,0,1-59.8975-92.19,283.4022,283.4022,0,0,0,78.5466,166.7923l690.3606,710.0057a283.4647,283.4647,0,0,0,272.75,77.2l960.0633-242.867a283.4645,283.4645,0,0,0,203.2316-197.6084l269.7027-952.8727A283.4,283.4,0,0,0,1933.2541,540.7162Z"/></g></svg>