<svg xmlns="http://www.w3.org/2000/svg" xmlns:xlink="http://www.w3.org/1999/xlink" width="1920mm" height="1357.3546mm" viewBox="0 0 5442.5197 3847.6193"><defs><style>.a{fill:none;}.b{clip-path:url(#a);}.c{fill:#f4837d;}</style><clipPath id="a"><rect class="a" x="3403.1023" y="-0.0086" width="2039.4174" height="2328.2988"/></clipPath></defs><title>Artboard 1</title><g class="b"><path class="c" d="M3509.2656,540.7076a283.1806,283.1806,0,0,0,9.0285,108.0157l269.7026,952.8728a283.4646,283.4646,0,0,0,203.2317,197.6084l960.0633,242.867a283.465,283.465,0,0,0,272.75-77.1995l690.3606-710.0058a283.1805,283.1805,0,0,0,59.8974-92.19,283.4016,283.4016,0,0,1-78.5466,166.7923l-690.3606,710.0057a283.4648,283.4648,0,0,1-272.75,77.2l-960.0634-242.867a283.4646,283.4646,0,0,1-203.2316-197.6084L3499.6449,723.3255A283.4,283.4,0,0,1,3509.2656,540.7076Z"/></g></svg>