<svg xmlns="http://www.w3.org/2000/svg" xmlns:xlink="http://www.w3.org/1999/xlink" width="1920mm" height="1357.3546mm" viewBox="0 0 5442.5197 3847.6193"><defs><style>.a{fill:none;}.b{clip-path:url(#a);}.c{fill:#fdceac;}</style><clipPath id="a"><rect class="a" x="3403.1023" y="-0.0086" width="2039.4174" height="2328.2988"/></clipPath></defs><title>Artboard 1</title><g class="b"><path class="c" d="M4951.2929,2042.0719,3991.23,1799.2049a283.4645,283.4645,0,0,1-203.2316-197.6084L3518.2952,648.7238a283.4648,283.4648,0,0,1,69.5181-274.808L4278.174-336.09a283.4643,283.4643,0,0,1,272.75-77.1995l960.0634,242.867A283.4643,283.4643,0,0,1,5714.2186,27.186l269.7027,952.8727a283.4645,283.4645,0,0,1-69.5181,274.808l-690.3607,710.0057A283.4641,283.4641,0,0,1,4951.2929,2042.0719Z"/></g></svg>