<svg xmlns="http://www.w3.org/2000/svg" xmlns:xlink="http://www.w3.org/1999/xlink" width="1920mm" height="880mm" viewBox="0 0 5442.5197 2494.4882"><defs><style>.a{fill:none;}.b{clip-path:url(#a);}.c{fill:#fdceac;}</style><clipPath id="a"><rect class="a" x="0.0001" width="2039.4174" height="2328.2988" transform="translate(2039.4175 2328.2988) rotate(-180)"/></clipPath></defs><title>Artboard 1</title><g class="b"><path class="c" d="M491.2269,2042.0805l960.0634-242.867a283.4643,283.4643,0,0,0,203.2315-197.6084l269.7027-952.8728a283.4643,283.4643,0,0,0-69.5181-274.8079L1164.3457-336.0814a283.4645,283.4645,0,0,0-272.75-77.1995L-68.4673-170.4139A283.4648,283.4648,0,0,0-271.6989,27.1945L-541.4016,980.0673a283.4645,283.4645,0,0,0,69.5181,274.8079L218.4772,1964.881A283.4648,283.4648,0,0,0,491.2269,2042.0805Z"/></g></svg>