<svg xmlns="http://www.w3.org/2000/svg" width="1920mm" height="1357.3546mm" viewBox="0 0 5442.5197 3847.6193"><defs><style>.a{fill:#fff;}.b{fill:#ee3330;}.c{fill:#fdec0a;}.d{fill:#1c56a3;}.e{fill:#231f20;}</style></defs><title>Artboard 1</title><path class="a" d="M1327.8466,1131.3562s34.7113,526.4523-509.0142,526.4523S299.407,1131.3562,299.407,1131.3562V265.9349h1028.44Z"/><path class="b" d="M1213.2079,1479.9847H818.8324v-171.58h478.52S1261.8539,1437.9124,1213.2079,1479.9847Z"/><path class="c" d="M304.5053,519.5342v605.815s-24.06,521.2847,514.3271,521.2847v-1127.1Z"/><polygon class="d" points="503.885 820.298 385.556 519.534 313.556 519.534 313.556 644.763 466.404 826.204 503.885 820.298"/><polygon class="d" points="598.553 820.298 735.612 519.534 813.617 519.534 813.617 611.239 636.014 826.204 598.553 820.298"/><polygon class="d" points="641.939 923.834 813.617 884.384 813.776 982.332 641.939 963.84 641.939 923.834"/><polygon class="d" points="460.499 919.877 313.556 883.728 313.556 980.702 460.499 963.602 460.499 919.877"/><path class="d" d="M485.6318,1044.6265,327.3559,1273.888s27.6108,120.2976,63.6026,158.7611c1.9725-7.3968,124.2486-371.2624,124.2486-371.2624Z"/><polygon class="d" points="574.871 1057.931 715.887 1638.74 814.889 1646.634 814.889 1399.119 604.458 1037.232 574.871 1057.931"/><path class="b" d="M646.2242,975.3669s6.3986,97.0534-93.84,97.0534-95.7569-97.0534-95.7569-97.0534V815.8224H646.2242Z"/><path class="e" d="M418.9909,411.1152l28.6626,8.6615a52.7609,52.7609,0,0,1-9.0989,20.1543,39.5362,39.5362,0,0,1-15.418,12.2047,57.6022,57.6022,0,0,1-23.4371,4.116,67.9736,67.9736,0,0,1-28.2014-5.0187,44.6713,44.6713,0,0,1-18.89-17.641,59.8111,59.8111,0,0,1-7.9416-32.3412,54.9371,54.9371,0,0,1,13.97-40.38,53.178,53.178,0,0,1,39.5452-14.1057,53.6437,53.6437,0,0,1,31.4464,8.0868,47.4931,47.4931,0,0,1,17.0106,24.8549l-28.8853,6.4285a24.779,24.779,0,0,0-3.1814-7.0787,18.8251,18.8251,0,0,0-6.7089-5.7663,20.636,20.636,0,0,0-25.9326,6.9176,37.9474,37.9474,0,0,0-4.4679,20.83,39.587,39.587,0,0,0,5.3388,24.1251,21.0888,21.0888,0,0,0,29.2155,1.2627A32.632,32.632,0,0,0,418.9909,411.1152Z"/><path class="e" d="M463.4771,348.57h87.6881v22.6021h-54.88v16.8257h50.9028V409.59H496.2856v20.8782h56.47v23.978H463.4771Z"/><path class="e" d="M570.5858,348.57h30.5536l39.8653,58.574V348.57h30.8359V454.4463H641.0047L601.3561,396.31v58.1366h-30.77Z"/><path class="e" d="M686.1511,348.57H785.6v26.1454H752.2293V454.45H719.51V374.7158H686.1511Z"/><path class="e" d="M855.4546,436.97H818.3194l-5.17,17.476h-33.405L819.5423,348.57h35.69L895.02,454.4463H860.7557Zm-6.7864-22.9-11.6877-38.0618L825.416,414.07Z"/><path class="e" d="M969.2542,348.57h32.6514v63.08a53.312,53.312,0,0,1-2.9229,17.7186,38.3416,38.3416,0,0,1-9.1744,14.5828,36.7578,36.7578,0,0,1-13.1075,8.7669,65.9857,65.9857,0,0,1-22.8943,3.5333,144.3057,144.3057,0,0,1-16.8636-1.0777,44.193,44.193,0,0,1-15.2827-4.3009,38.1593,38.1593,0,0,1-11.2225-9.1267,33.5,33.5,0,0,1-6.9713-12.2027,62.9066,62.9066,0,0,1-3.0383-17.8955V348.57h32.6513v64.5829a18.4087,18.4087,0,0,0,4.796,13.5211,20.6793,20.6793,0,0,0,26.5828.0776,18.3927,18.3927,0,0,0,4.7959-13.6026Z"/><path class="e" d="M1024.0026,454.4463V348.57h54.5355a79.4928,79.4928,0,0,1,23.1847,2.5849,24.6954,24.6954,0,0,1,12.9245,9.65,29.23,29.23,0,0,1,4.9134,17.1459,28.3406,28.3406,0,0,1-14.09,25.5806,39.9016,39.9016,0,0,1-11.4969,4.1756,32.4084,32.4084,0,0,1,8.5162,3.9033,33.0418,33.0418,0,0,1,5.2335,5.5675,40.8466,40.8466,0,0,1,4.5732,6.5815l15.8456,30.6809h-36.9542L1073.69,422.0812a24.5834,24.5834,0,0,0-5.9214-8.1524,13.6982,13.6982,0,0,0-8.0092-2.4437h-2.8931v42.9612Zm32.8641-62.9823h13.7975a49.32,49.32,0,0,0,8.6694-1.4356,8.6383,8.6383,0,0,0,5.3011-3.3306,10.7374,10.7374,0,0,0-1.1832-14.01,19.7467,19.7467,0,0,0-12.2146-2.738h-14.37Z"/><path class="e" d="M1203.7153,436.97h-37.1372l-5.17,17.476h-33.4049L1167.799,348.57h35.6916l39.7857,105.8759h-34.2679Zm-6.7864-22.9-11.68-38.0678L1173.6767,414.07Z"/><path class="e" d="M1251.7946,348.57h31.4166v24.1172l-6.0665,48.467H1257.724l-5.9214-48.467Zm1.0857,79.9333h29.3228v25.9426H1252.88Z"/><rect class="e" x="308.6332" y="510.6581" width="1007.7842" height="17.7504"/><rect class="e" x="809.9582" y="519.5342" width="17.7504" height="1138.2743"/><rect class="e" x="818.8324" y="1127.9501" width="497.5849" height="17.7504"/><path class="e" d="M1308.1257,285.6557v846.3507l.0418.6482a575.0667,575.0667,0,0,1-10.3913,129.1838,555.5688,555.5688,0,0,1-36.817,120.8166,426.8419,426.8419,0,0,1-78.3864,120.4428c-83.8623,89.573-206.24,134.99-363.74,134.99-157.5343,0-280.8781-45.4427-366.6016-135.0634a438.7986,438.7986,0,0,1-80.6293-119.9854,564.3766,564.3766,0,0,1-39.3045-120.431,582.7994,582.7994,0,0,1-13.189-130.3429l.02-.4534V285.6557h988.9977m19.7209-19.7208H299.407v865.4213s-24.3,526.4523,519.4254,526.4523,509.0142-526.4523,509.0142-526.4523Z"/><path class="b" d="M1075.1539,900.164a74.65,74.65,0,0,0,66.7264-15.1118,79.6879,79.6879,0,0,1-53.5772,3.2868,64.3979,64.3979,0,0,1-50.2963-59.5026,148.4427,148.4427,0,0,1,4.0265-47.25,101.3744,101.3744,0,0,0,40.6745,7.4783,86.5165,86.5165,0,0,0,48.3179-21.6933s13.1473-19.0647-2.6306-27.2827a74.7639,74.7639,0,0,0-57.1922,3.6168c-9.5323,6.5737-26.6245,20.7072-26.6245,20.7072a189.0238,189.0238,0,0,0-26.9526-3.6149c-.6582-6.5737-.33-67.3826-.33-67.3826s-19.3927,21.6933-78.2292,20.7071-47.6617-45.0311-47.6617-45.0311,5.9174-24.324,51.2766-21.0372a185.827,185.827,0,0,1,83.4885,18.0784c21.3673,11.1768,73.6282.3281,73.6282.3281a117.0161,117.0161,0,0,0,42.0743-27.1176,112.2688,112.2688,0,0,1-66.0682,20.7091c-40.43,0-68.5339-24.6561-107.4845-24.6561s-96.6358,17.2553-96.6358,53.7423,66.0682,36.984,66.0682,36.984,47.3238-3.9449,62.6165-19.23v50.7835H968.8127a108.4946,108.4946,0,0,0-52.756,19.23C893.87,794.1609,883.0235,803.53,883.0235,831.141A90.1736,90.1736,0,0,0,948.5987,910.52c45.3592,16.271,51.2766,29.5833,51.2766,29.5833L994.9441,950.95a97.9264,97.9264,0,0,0-45.8523-10.3535,52.6785,52.6785,0,0,0-28.3028,7.7368,18.4125,18.4125,0,0,0,9.3574,34.0015h.7019s39.69-.0816,54.2353-14.6266a42.9,42.9,0,0,1,13.3122,14.7141,62.1407,62.1407,0,0,0-16.2709,42.9771c0,1.0518.0317,2.0739.0895,3.0661a29.6925,29.6925,0,0,0,43.91,24.4055,22.6417,22.6417,0,0,0,11.7156-21.061,67.0271,67.0271,0,0,0-22.6795-57.1941c5.9154-7.3948,13.3122-14.7141,13.3122-14.7141l17.8259,14.0023A41.1931,41.1931,0,0,0,1066.93,984.641a35.5922,35.5922,0,0,0,26.1315-7.0668l5.5674-4.6488a33.89,33.89,0,0,0,11.3518-24.4413c-1.6027-6.5517-3.615-12.8191-21.8584-12.8191a103.3847,103.3847,0,0,0-51.2767,9.3693c-4.4381-2.9587-20.214-15.2848-20.214-15.2848V777.399a41.768,41.768,0,0,1,16.269,1.4794,98.7366,98.7366,0,0,0-13.9684,50.29A72.9879,72.9879,0,0,0,1075.1539,900.164Zm16.1895-153.3368c26.378,0,26.378,15.2848,26.378,15.2848s.4931,16.5176-28.1039,14.5451a94.9676,94.9676,0,0,1-37.7178-8.63A48.5485,48.5485,0,0,1,1091.3434,746.8272ZM930.7669,965.8485a11.7058,11.7058,0,0,1-6.3748-10.0414c-.05-4.5733,2.7679-10.0613,16.5713-10.0613a69.6778,69.6778,0,0,1,43.1481,19.7487A79.6736,79.6736,0,0,1,930.7669,965.8485ZM1077.2914,946.76c18.4921,3.2032,27.1177,12.5726,18.2415,21.2s-28.1019,1.7259-28.1019,1.7259a114.9272,114.9272,0,0,1-25.6463-20.7111A83.64,83.64,0,0,1,1077.2914,946.76Zm-132.3-55.14s-47.99-26.6246-47.99-68.0407a50.5549,50.5549,0,0,1,38.1274-49.96,260.3538,260.3538,0,0,1,66.0682-2.9587V917.5863Zm77.5711,130.5c2.9448,17.3706-.9942,24.9822-8.8742,25.7218-11.29,1.0578-16.7642-21.9419-16.7642-37.2247a33.2523,33.2523,0,0,1,6.9037-22.435A68.7486,68.7486,0,0,1,1022.563,1022.12Zm.9942-65.9847a145.04,145.04,0,0,0-13.3123,11.3338c-2.9587-2.219-9.86-10.107-13.3122-12.08a67.33,67.33,0,0,0,10.3535-12.0794Z"/><ellipse class="b" cx="1190.6913" cy="982.9964" rx="20.7071" ry="29.0902"/><path class="b" d="M1186.2533,915.4487h9.8624l14.79-228.77s-.4931-27.1177-19.7208-27.1177c0,0-21.2,0-21.2,27.6108S1186.2533,915.4487,1186.2533,915.4487Z"/></svg>