<svg xmlns="http://www.w3.org/2000/svg" width="1029.0481" height="1391.8737" viewBox="0 0 1029.0481 1391.8737"><defs><style>.a{fill:#fff;}.b{fill:#ee3330;}.c{fill:#ffed00;}.d{fill:#1c56a3;}.e{fill:#231f20;}</style></defs><title>Asset 4</title><path class="a" d="M1028.6031,865.4213s34.7114,526.4524-509.0141,526.4524S.1636,865.4213.1636,865.4213V0h1028.44Z"/><path class="b" d="M913.9644,1214.05H519.589V1042.47h478.52S962.6105,1171.9776,913.9644,1214.05Z"/><path class="c" d="M5.2618,253.5994v605.815S-18.7977,1380.699,519.589,1380.699v-1127.1Z"/><polygon class="d" points="204.642 554.363 86.313 253.599 14.313 253.599 14.313 378.828 167.161 560.269 204.642 554.363"/><polygon class="d" points="299.309 554.363 436.369 253.599 514.373 253.599 514.373 345.304 336.77 560.269 299.309 554.363"/><polygon class="d" points="342.696 657.899 514.373 618.449 514.532 716.397 342.696 697.905 342.696 657.899"/><polygon class="d" points="161.255 653.942 14.313 617.793 14.313 714.767 161.255 697.667 161.255 653.942"/><path class="d" d="M186.3883,778.6917,28.1124,1007.9531s27.6108,120.2977,63.6027,158.7611c1.9725-7.3968,124.2486-371.2624,124.2486-371.2624Z"/><polygon class="d" points="275.627 791.996 416.644 1372.805 515.646 1380.699 515.646 1133.184 305.215 771.297 275.627 791.996"/><path class="b" d="M346.9807,709.432s6.3987,97.0534-93.84,97.0534-95.757-97.0534-95.757-97.0534V549.8875H346.9807Z"/><path class="e" d="M119.7474,145.18l28.6627,8.6614a52.7625,52.7625,0,0,1-9.0989,20.1543,39.5372,39.5372,0,0,1-15.418,12.2048,57.6046,57.6046,0,0,1-23.4372,4.1159,67.9746,67.9746,0,0,1-28.2013-5.0186,44.6716,44.6716,0,0,1-18.89-17.6411,59.8108,59.8108,0,0,1-7.9417-32.3411,54.9378,54.9378,0,0,1,13.9705-40.38A53.1776,53.1776,0,0,1,98.9389,80.83a53.6421,53.6421,0,0,1,31.4464,8.0868,47.4919,47.4919,0,0,1,17.0107,24.8549L118.5106,120.2a24.78,24.78,0,0,0-3.1814-7.0787,18.8239,18.8239,0,0,0-6.7088-5.7663,19.2875,19.2875,0,0,0-8.8841-2.03,19.23,19.23,0,0,0-17.0485,8.9477,37.946,37.946,0,0,0-4.4679,20.83,39.5866,39.5866,0,0,0,5.3388,24.1252,18.317,18.317,0,0,0,15.03,6.5358,18.2356,18.2356,0,0,0,14.1852-5.2732A32.6311,32.6311,0,0,0,119.7474,145.18Z"/><path class="e" d="M164.2337,82.6355h87.688v22.6021h-54.88v16.8257h50.9028v21.592H197.0421v20.8781h56.47v23.978H164.2337Z"/><path class="e" d="M271.3423,82.6355H301.896L341.7612,141.21V82.6355h30.836V188.5114h-30.836l-39.6485-58.1366v58.1366h-30.77Z"/><path class="e" d="M386.9076,82.6355H486.357v26.1454H452.9858v79.7345H420.2669V108.7809H386.9076Z"/><path class="e" d="M556.2111,171.0354H519.076l-5.17,17.476H480.5012L520.2988,82.6355h35.69l39.7877,105.8759H561.5122Zm-6.7863-22.9L537.737,110.0733l-11.5645,38.0618Z"/><path class="e" d="M670.0108,82.6355h32.6514v63.08a53.3119,53.3119,0,0,1-2.923,17.7185,38.3415,38.3415,0,0,1-9.1744,14.5829,36.758,36.758,0,0,1-13.1074,8.7668,65.9887,65.9887,0,0,1-22.8944,3.5334A144.3258,144.3258,0,0,1,637.7,189.2392a44.1963,44.1963,0,0,1-15.2828-4.3009,38.1637,38.1637,0,0,1-11.2225-9.1267,33.5009,33.5009,0,0,1-6.9712-12.2028,62.8991,62.8991,0,0,1-3.0383-17.8955V82.6355h32.6512v64.583a18.4088,18.4088,0,0,0,4.796,13.521,20.6793,20.6793,0,0,0,26.5828.0776,18.3925,18.3925,0,0,0,4.796-13.6026Z"/><path class="e" d="M724.7591,188.5114V82.6355h54.5356a79.4892,79.4892,0,0,1,23.1846,2.585,24.6959,24.6959,0,0,1,12.9246,9.65,29.2293,29.2293,0,0,1,4.9133,17.1459,28.34,28.34,0,0,1-14.09,25.5807,39.9053,39.9053,0,0,1-11.4969,4.1756,32.4134,32.4134,0,0,1,8.5163,3.9032,33.0412,33.0412,0,0,1,5.2334,5.5675,40.8436,40.8436,0,0,1,4.5733,6.5816l15.8455,30.6808H791.9448l-17.4978-32.359a24.5852,24.5852,0,0,0-5.9214-8.1524,13.6978,13.6978,0,0,0-8.0092-2.4438h-2.8931v42.9612Zm32.8642-62.9823h13.7974a49.31,49.31,0,0,0,8.6694-1.4356,8.6369,8.6369,0,0,0,5.3011-3.3306,10.7374,10.7374,0,0,0-1.1831-14.01,19.7476,19.7476,0,0,0-12.2147-2.738h-14.37Z"/><path class="e" d="M904.4719,171.0354H867.3347l-5.17,17.476H828.76L868.5556,82.6355h35.6915l39.7858,105.8759h-34.268Zm-6.7864-22.9-11.68-38.0677-11.5724,38.0677Z"/><path class="e" d="M952.5512,82.6355h31.4166v24.1172L977.9012,155.22H958.4805l-5.9214-48.4671Zm1.0856,79.9333H982.96v25.9426H953.6368Z"/><rect class="e" x="9.3897" y="244.7232" width="1007.7842" height="17.7504"/><rect class="e" x="510.7148" y="253.5994" width="17.7504" height="1138.2743"/><rect class="e" x="519.589" y="862.0152" width="497.5849" height="17.7504"/><path class="e" d="M1008.8823,19.7209V866.0715l.0418.6482a575.0658,575.0658,0,0,1-10.3913,129.1838A555.5729,555.5729,0,0,1,961.7157,1116.72a426.8388,426.8388,0,0,1-78.3863,120.4428c-83.8624,89.573-206.24,134.99-363.74,134.99-157.5343,0-280.8782-45.4427-366.6017-135.0634A438.796,438.796,0,0,1,72.3582,1117.104,564.3758,564.3758,0,0,1,33.0537,996.6731,582.7891,582.7891,0,0,1,19.8647,866.33l.02-.4534V19.7209h988.9977M1028.6031,0H.1636V865.4213s-24.3,526.4524,519.4254,526.4524,509.0141-526.4524,509.0141-526.4524Z"/><path class="b" d="M775.91,634.2291a74.65,74.65,0,0,0,66.7265-15.1118,79.6885,79.6885,0,0,1-53.5772,3.2869,64.3982,64.3982,0,0,1-50.2964-59.5026,148.4489,148.4489,0,0,1,4.0265-47.25,101.375,101.375,0,0,0,40.6746,7.4784,86.5169,86.5169,0,0,0,48.3179-21.6934s13.1472-19.0647-2.6307-27.2827a74.7632,74.7632,0,0,0-57.1921,3.6169c-9.5324,6.5736-26.6246,20.7071-26.6246,20.7071a189.0219,189.0219,0,0,0-26.9526-3.6149c-.6582-6.5736-.33-67.3826-.33-67.3826s-19.3928,21.6933-78.2293,20.7071-47.6617-45.0311-47.6617-45.0311,5.9175-24.324,51.2767-21.0372a185.8271,185.8271,0,0,1,83.4885,18.0785c21.3673,11.1767,73.6281.3281,73.6281.3281a117.0167,117.0167,0,0,0,42.0744-27.1177,112.2691,112.2691,0,0,1-66.0683,20.7091c-40.43,0-68.5339-24.6561-107.4845-24.6561S572.44,386.7162,572.44,423.2032s66.0683,36.9841,66.0683,36.9841,47.3237-3.945,62.6164-19.23v50.7836H669.5692a108.4948,108.4948,0,0,0-52.756,19.23C594.6268,528.226,583.78,537.5954,583.78,565.2061a90.1735,90.1735,0,0,0,65.5751,79.3786c45.3592,16.271,51.2767,29.5833,51.2767,29.5833l-4.9313,10.8467a97.9273,97.9273,0,0,0-45.8523-10.3535,52.678,52.678,0,0,0-28.3027,7.7368A18.4125,18.4125,0,0,0,630.9029,716.4h.7019s39.69-.0816,54.2353-14.6266a42.9006,42.9006,0,0,1,13.3123,14.7141,62.1412,62.1412,0,0,0-16.271,42.9771c0,1.0518.0318,2.0739.09,3.0661a29.6928,29.6928,0,0,0,43.91,24.4056,22.642,22.642,0,0,0,11.7156-21.0611,67.0266,67.0266,0,0,0-22.68-57.194c5.9155-7.3948,13.3123-14.7142,13.3123-14.7142l17.8259,14.0023a41.1931,41.1931,0,0,0,20.6316,10.7373,35.5924,35.5924,0,0,0,26.1314-7.0667l5.5675-4.6489a33.89,33.89,0,0,0,11.3517-24.4412c-1.6027-6.5517-3.6149-12.8192-21.8584-12.8192a103.3843,103.3843,0,0,0-51.2766,9.3693c-4.4381-2.9587-20.214-15.2847-20.214-15.2847V511.4641a41.768,41.768,0,0,1,16.269,1.4794,98.7368,98.7368,0,0,0-13.9685,50.29A72.9879,72.9879,0,0,0,775.91,634.2291ZM792.1,480.8924c26.378,0,26.378,15.2847,26.378,15.2847s.4931,16.5176-28.1039,14.5451a94.9676,94.9676,0,0,1-37.7178-8.63A48.5485,48.5485,0,0,1,792.1,480.8924ZM631.5235,699.9136a11.7055,11.7055,0,0,1-6.3748-10.0414c-.05-4.5733,2.7678-10.0612,16.5712-10.0612A69.6774,69.6774,0,0,1,684.868,699.56,79.6727,79.6727,0,0,1,631.5235,699.9136ZM778.048,680.8251c18.492,3.2033,27.1177,12.5726,18.2415,21.2s-28.1019,1.7259-28.1019,1.7259A114.9272,114.9272,0,0,1,742.5413,683.04,83.6436,83.6436,0,0,1,778.048,680.8251Zm-132.3-55.14s-47.99-26.6245-47.99-68.0407a50.5549,50.5549,0,0,1,38.1274-49.96,260.3541,260.3541,0,0,1,66.0682-2.9588V651.6515Zm77.5711,130.5c2.9449,17.37-.9942,24.9821-8.8742,25.7217-11.29,1.0579-16.7641-21.9419-16.7641-37.2246a33.252,33.252,0,0,1,6.9036-22.435A68.7477,68.7477,0,0,1,723.32,756.1851Zm.9942-65.9848a145.0253,145.0253,0,0,0-13.3122,11.3338c-2.9588-2.219-9.8605-10.107-13.3123-12.0794a67.33,67.33,0,0,0,10.3535-12.08Z"/><ellipse class="b" cx="891.4479" cy="717.0615" rx="20.7071" ry="29.0902"/><path class="b" d="M887.01,649.5138h9.8624l14.79-228.77s-.4931-27.1177-19.7208-27.1177c0,0-21.2,0-21.2,27.6108S887.01,649.5138,887.01,649.5138Z"/></svg>